<svg width="2098" height="740" xmlns="http://www.w3.org/2000/svg">
  <g transform="translate(-1)" fill="none" fill-rule="evenodd">
    <g transform="matrix(-1 0 0 1 755.5 0)">
      <path d="M385.7 0H11.3C0 0-4.5 11.4 6.8 15.9c15.9 9 81.7 47.7 81.7 47.7 22.7 11.3 29.5 38.6 18.1 61.3 0 2.2-2.2 4.5-4.5 9-131.6 156.7-109 388.2 47.6 519.9A367.6 367.6 0 0 0 669.3 606c129.3-156.6 108.9-390.4-47.6-519.8A360.1 360.1 0 0 0 385.7 0zm10.5 684.4c-162.6 0-295-131.6-295-293.2S233.6 98 396.2 98s295 131.6 295 293.2c-2.3 161.6-132.4 293.2-295 293.2z" fill="#2383C0" fill-rule="nonzero"/>
      <ellipse fill="#FFF" fill-rule="nonzero" cx="396.2" cy="391.2" rx="295" ry="293.2"/>
      <ellipse fill="#2383C0" cx="555.9" cy="370" rx="56.7" ry="84"/>
      <ellipse fill="#2383C0" cx="363" cy="370" rx="81.7" ry="118"/>
    </g>
    <rect fill="#FFF" fill-rule="nonzero" x="1349" y="170" width="700" height="400" rx="30"/>
    <path d="M1359 120h680a60 60 0 0 1 60 60v380a60 60 0 0 1-60 60h-680a60 60 0 0 1-60-60V180a60 60 0 0 1 60-60zm20 50a30 30 0 0 0-30 30v340a30 30 0 0 0 30 30h640a30 30 0 0 0 30-30V200a30 30 0 0 0-30-30h-640zm79.6 291h-42l45-214.7h42l-16.1 76.4c9.5-7.4 18.3-12.7 26.5-16a70 70 0 0 1 26.4-5c12.6 0 22.5 3.7 29.9 11 7.3 7.1 11 16.6 11 28.3 0 6.3-1.4 16-4.2 29l-19 91h-42l19.4-92.7c2-10 3.1-16.5 3.1-19.4 0-5.1-1.6-9.3-4.8-12.4a18.1 18.1 0 0 0-13.2-4.7 33 33 0 0 0-20.2 7.3 63.6 63.6 0 0 0-19.2 23.8c-2.4 5.1-5.7 17.3-9.7 36.4l-12.9 61.7zm151.2-124.4l6.5-31.2h20.5l5-24.9 48.3-29-11.3 54h25.6l-6.4 31.1h-25.8l-13.6 65.2a203.4 203.4 0 0 0-3.7 20.2c0 3.3 1 5.8 3.1 7.6 2 1.8 5.8 2.7 11.1 2.7 1.9 0 6.5-.4 14-1l-6.6 31.2a118 118 0 0 1-22.3 2.2c-14.8 0-25.6-2.9-32.4-8.6a29.5 29.5 0 0 1-10-23.8c0-4.8 1.7-15.8 5.3-33.1l13-62.6h-20.3zm100 0l6.4-31.2h20.5l5-24.9 48.3-29-11.3 54h25.6l-6.4 31.1h-25.8l-13.6 65.2a203.4 203.4 0 0 0-3.7 20.2c0 3.3 1 5.8 3.1 7.6 2 1.8 5.8 2.7 11.1 2.7 1.9 0 6.5-.4 14-1l-6.6 31.2a118 118 0 0 1-22.3 2.2c-14.8 0-25.6-2.9-32.4-8.6a29.5 29.5 0 0 1-10-23.8c0-4.8 1.7-15.8 5.3-33.1l13-62.6h-20.3zm120.5-31.2h39.8l-3.4 16c8.5-7 16.5-12 24-15a60.5 60.5 0 0 1 23.8-4.6c16.3 0 29.4 5.6 39.3 16.8 10 11.2 14.9 28 14.9 50.3 0 28-8.5 51.7-25.6 71a67.4 67.4 0 0 1-52 24.8 51.8 51.8 0 0 1-46.8-25l-16.8 80.6h-42l44.8-214.9zm25.3 89.2a41 41 0 0 0 8.9 28.2 27 27 0 0 0 20.8 10c7 0 13.7-2.4 20.1-7.5 6.5-5 11.8-13.3 16-25a95.4 95.4 0 0 0 6.4-32.5 39 39 0 0 0-8.3-26.7 27.3 27.3 0 0 0-21.3-9.3c-8 0-15.3 2.9-21.9 8.6a55 55 0 0 0-15.3 25.2 95.7 95.7 0 0 0-5.4 29z" fill="#2383C0" fill-rule="nonzero"/>
    <path d="M668.3 684.4h335c119.3 0 119.3-148.8-3-148.8h-89.5c-129.7 0-129.7-161.3 0-161.3h184.6" stroke="#2383C0" stroke-linecap="round" stroke-width="50"/>
    <g fill="#2383C0" fill-rule="nonzero">
      <path d="M999 278h114v184H999a60 60 0 0 1-60-60v-64a60 60 0 0 1 60-60z"/>
      <path d="M1112.5 247a29.5 29.5 0 0 1 29.5 29.5v187a29.5 29.5 0 0 1-59 0v-187a29.5 29.5 0 0 1 29.5-29.5zm136.5 83c0 11-7.1 20-16 20h-75v-40h75c8.9 0 16 9 16 20zm0 80c0 11-7.1 20-16 20h-75v-40h75c8.9 0 16 9 16 20z"/>
    </g>
  </g>
</svg>
